# xmcd
#
# Track frame offsets: 
#        150
#        9736
#        16708
#        29012
#        43661
#        54145
#        60144
#        71039
#        84057
#        94696
#        109383
#        127395
#        139656
#
# Disc length: 2074 seconds
#
# Revision: 1
# Processed by: cddbd v1.5.2PL0 Copyright (c) Steve Scherf et al.
# Submitted via: ExactAudioCopy v0.99pb4
#
DISCID=a508180d
DTITLE=Mechanical Bull - Mechanical Bull
DYEAR=2006
DGENRE=Country
TTITLE0=Waitin' for the Beer to Get Cold
TTITLE1=Puttin' Out Fires with Gasoline
TTITLE2=My Baby's Just a 6 Pack Away
TTITLE3=Funny Thing About Luck
TTITLE4=Hennessey
TTITLE5=Box of Wine
TTITLE6=Another Beautiful Day
TTITLE7=Videostore Girl
TTITLE8=Paul Elijah
TTITLE9=Old Friend
TTITLE10=Don't Call Me Baby
TTITLE11=House That Ain't a Home
TTITLE12=Alright
EXTD=
EXTT0=
EXTT1=
EXTT2=
EXTT3=
EXTT4=
EXTT5=
EXTT6=
EXTT7=
EXTT8=
EXTT9=
EXTT10=
EXTT11=
EXTT12=
PLAYORDER=
